<?xml version="1.0" encoding="UTF-8" standalone="no"?>
<!DOCTYPE svg PUBLIC "-//W3C//DTD SVG 1.1//EN" "http://www.w3.org/Graphics/SVG/1.1/DTD/svg11.dtd">
<svg xmlns="http://www.w3.org/2000/svg" version="1.1" viewBox="0.00 0.00 43.00 38.00">
<path fill="#f7f8f9" d="
  M 32.87 0.00
  L 35.24 0.00
  Q 36.02 0.85 37.05 1.02
  Q 37.51 1.10 37.85 1.43
  L 39.76 3.30
  Q 40.15 3.67 40.15 4.22
  L 40.16 9.75
  Q 40.17 10.30 39.78 10.68
  L 34.53 15.92
  Q 34.17 16.29 34.01 16.78
  Q 33.70 17.79 32.86 18.57
  Q 32.41 18.99 31.79 19.00
  Q 31.48 19.00 31.27 19.23
  Q 30.72 19.84 31.54 19.95
  L 31.98 20.00
  A 1.41 1.38 70.6 0 1 32.79 20.40
  L 38.74 26.29
  A 0.85 0.83 -65.7 0 1 38.99 26.98
  Q 38.93 27.57 39.41 27.89
  Q 40.00 28.29 40.00 29.00
  L 40.01 32.91
  Q 40.01 33.41 39.65 33.77
  L 36.79 36.66
  Q 36.51 36.94 36.11 36.99
  Q 33.96 37.21 31.72 37.03
  C 30.31 36.91 29.08 36.04 28.00 35.19
  Q 27.16 34.53 27.57 35.52
  Q 28.00 36.55 28.73 37.33
  Q 28.84 37.44 28.73 37.54
  L 28.54 37.74
  Q 28.47 37.80 28.42 37.73
  Q 27.44 36.39 26.07 35.68
  Q 25.44 35.35 25.85 34.77
  Q 26.03 34.50 26.07 34.16
  A 0.38 0.38 0.0 0 0 25.34 33.97
  Q 24.94 34.92 24.17 35.83
  Q 24.08 35.94 23.97 35.86
  L 23.96 35.86
  Q 23.78 35.74 23.92 35.57
  Q 24.85 34.48 23.76 33.38
  A 0.71 0.71 0.0 0 0 22.86 33.28
  Q 22.53 33.51 22.15 33.35
  Q 21.74 33.18 22.16 33.06
  L 22.90 32.86
  Q 23.31 32.74 23.11 32.36
  Q 22.98 32.12 22.67 32.14
  Q 22.12 32.18 22.12 31.63
  L 22.12 31.25
  A 0.27 0.26 7.7 0 1 22.46 31.00
  Q 22.73 31.07 22.99 31.05
  Q 23.77 31.01 23.03 30.77
  C 20.57 29.96 17.42 33.85 15.93 35.61
  A 1.02 0.99 -68.0 0 1 15.13 35.96
  Q 14.38 35.93 14.01 36.54
  A 1.00 0.98 17.8 0 1 13.04 37.03
  Q 11.17 36.81 9.38 37.42
  Q 8.83 37.61 8.37 37.24
  Q 7.20 36.28 5.91 35.57
  Q 5.44 35.32 3.92 34.94
  Q 2.96 34.70 1.95 33.89
  Q 1.73 33.71 1.94 33.38
  Q 2.21 32.95 2.62 33.26
  Q 2.96 33.51 3.30 33.31
  Q 3.79 33.03 3.28 32.78
  Q 1.47 31.89 3.11 29.32
  A 0.31 0.30 44.2 0 0 3.10 28.98
  Q 2.81 28.61 2.72 28.75
  Q 2.55 29.02 2.61 28.71
  Q 2.62 28.66 2.61 28.61
  Q 2.54 28.30 2.85 28.36
  Q 2.99 28.39 3.12 28.33
  Q 3.27 28.26 3.37 28.13
  C 5.32 25.77 8.07 23.48 9.41 20.76
  Q 9.65 20.28 9.52 19.76
  Q 9.41 19.31 8.98 19.16
  Q 8.61 19.02 8.32 18.74
  L 2.36 12.89
  A 0.98 0.98 0.0 0 1 2.10 11.89
  Q 2.50 10.59 1.43 9.71
  Q 0.87 9.25 1.51 8.91
  Q 1.61 8.85 1.70 8.77
  Q 2.11 8.42 1.58 8.35
  Q 1.27 8.30 1.35 7.48
  A 0.35 0.34 70.5 0 1 1.45 7.26
  L 6.10 2.64
  Q 6.56 2.18 7.20 2.06
  C 10.72 1.43 13.50 1.88 16.10 4.61
  Q 18.43 7.05 21.06 9.37
  Q 21.59 9.85 21.95 9.23
  Q 22.11 8.96 22.15 8.62
  Q 22.23 8.05 22.62 7.63
  Q 27.37 2.61 32.87 0.00
  Z
  M 37.37 27.63
  Q 37.44 27.19 36.89 26.61
  Q 33.94 23.50 30.30 20.65
  A 1.39 1.39 0.0 0 1 30.17 18.57
  Q 33.45 15.30 37.20 11.68
  Q 39.95 9.02 38.64 4.77
  Q 38.20 3.33 36.82 2.72
  C 32.78 0.92 30.89 2.44 28.11 5.15
  Q 24.97 8.23 22.03 11.52
  Q 21.57 12.04 21.07 11.55
  Q 17.76 8.27 14.10 4.95
  C 10.89 2.05 6.80 2.73 5.35 6.79
  Q 4.83 8.27 5.49 9.56
  C 7.29 13.07 11.11 16.36 14.02 18.85
  A 0.61 0.60 -45.9 0 1 14.03 19.75
  Q 10.62 22.89 7.54 26.59
  Q 4.34 30.44 7.35 33.62
  Q 8.84 35.20 10.71 35.44
  Q 13.19 35.76 14.98 34.22
  Q 17.96 31.66 21.52 27.43
  Q 21.93 26.93 22.41 27.37
  Q 25.30 29.98 28.31 32.90
  Q 30.97 35.48 32.57 35.66
  Q 38.11 36.26 38.54 31.03
  Q 38.71 28.98 37.37 27.63
  Z"
/>
</svg>
