<?xml version="1.0" encoding="UTF-8" standalone="no"?>
<!DOCTYPE svg PUBLIC "-//W3C//DTD SVG 1.1//EN" "http://www.w3.org/Graphics/SVG/1.1/DTD/svg11.dtd">
<svg xmlns="http://www.w3.org/2000/svg" version="1.1" viewBox="0.00 0.00 43.00 38.00">
<path fill="#f8f9f8" fill-opacity="0.996" d="
  M 5.04 5.12
  Q 4.76 4.74 4.76 4.27
  Q 4.77 3.74 5.12 3.34
  Q 7.43 0.70 10.96 0.61
  Q 21.17 0.34 36.44 0.52
  Q 38.28 0.54 39.64 1.31
  C 42.66 3.03 43.39 6.55 40.61 8.98
  Q 38.95 10.42 36.68 10.40
  Q 30.59 10.34 11.66 10.47
  Q 11.05 10.47 10.47 10.25
  Q 9.99 10.07 9.57 10.37
  Q 9.10 10.71 8.61 10.42
  Q 6.93 9.43 5.95 7.76
  Q 5.71 7.34 5.23 7.34
  Q 4.02 7.34 3.35 6.34
  Q 3.06 5.90 3.58 5.86
  L 4.76 5.74
  Q 5.46 5.68 5.04 5.12
  Z
  M 41.17 5.38
  A 3.83 3.83 0.0 0 0 37.34 1.55
  L 11.18 1.55
  A 3.83 3.83 0.0 0 0 7.35 5.38
  L 7.35 5.58
  A 3.83 3.83 0.0 0 0 11.18 9.41
  L 37.34 9.41
  A 3.83 3.83 0.0 0 0 41.17 5.58
  L 41.17 5.38
  Z"
/>
<path fill="#f8f9f8" fill-opacity="0.996" d="
  M 4.90 19.17
  Q 5.43 19.44 5.33 18.85
  Q 5.22 18.24 5.57 17.74
  A 0.23 0.22 -71.9 0 0 5.39 17.38
  Q 4.24 17.38 3.48 16.45
  Q 2.92 15.76 3.79 15.97
  L 4.65 16.19
  A 0.92 0.92 0.0 0 0 5.70 14.89
  Q 5.38 14.24 5.89 13.77
  Q 6.44 13.27 6.47 14.01
  Q 6.50 14.49 6.26 14.92
  Q 5.92 15.53 6.59 15.33
  Q 7.30 15.11 7.70 14.42
  Q 7.99 13.94 8.56 13.86
  C 10.10 13.66 10.85 12.98 12.53 12.99
  Q 23.09 13.00 35.51 13.06
  C 38.77 13.07 42.74 15.21 42.31 18.89
  Q 42.02 21.43 39.10 22.62
  C 37.00 23.49 35.07 23.03 32.93 23.47
  A 1.37 1.33 -38.1 0 1 32.07 23.38
  Q 31.01 22.89 29.85 23.32
  Q 29.27 23.53 28.68 23.37
  Q 27.23 22.98 25.69 23.18
  Q 24.23 23.36 22.78 23.23
  C 20.29 22.99 17.88 23.47 15.42 23.25
  Q 12.23 22.96 9.06 23.35
  Q 8.25 23.45 8.84 22.89
  Q 9.22 22.52 8.78 22.12
  A 0.60 0.59 55.4 0 0 8.15 22.00
  L 7.03 22.46
  Q 6.23 22.78 5.93 21.97
  Q 5.17 19.93 3.40 18.61
  Q 3.23 18.48 3.36 18.32
  L 3.36 18.32
  Q 3.47 18.17 3.61 18.29
  Q 4.21 18.81 4.90 19.17
  Z
  M 41.1901 18.0895
  A 3.73 3.73 0.0 0 0 37.4667 14.3530
  L 11.0667 14.3070
  A 3.73 3.73 0.0 0 0 7.3302 18.0305
  L 7.3299 18.2305
  A 3.73 3.73 0.0 0 0 11.0533 21.9670
  L 37.4533 22.0130
  A 3.73 3.73 0.0 0 0 41.1898 18.2895
  L 41.1901 18.0895
  Z"
/>
<path fill="#f8f9f8" fill-opacity="0.996" d="
  M 5.19 32.77
  Q 4.60 32.83 4.25 32.34
  Q 3.85 31.77 3.20 31.53
  Q 2.80 31.39 3.10 31.09
  Q 3.44 30.76 3.40 30.29
  Q 3.34 29.55 4.08 29.43
  Q 5.43 29.22 5.31 27.89
  Q 5.28 27.51 5.60 27.31
  L 5.88 27.12
  A 0.04 0.04 0.0 0 1 5.93 27.17
  Q 5.78 27.48 5.93 27.79
  Q 6.15 28.24 6.51 27.90
  Q 8.66 25.92 11.19 25.93
  Q 16.89 25.96 23.32 25.79
  Q 29.31 25.63 37.12 25.97
  Q 38.25 26.02 39.12 26.43
  Q 40.47 27.06 41.48 27.98
  Q 41.77 28.24 41.90 28.60
  Q 43.29 32.29 40.11 34.66
  Q 38.23 36.05 35.46 36.06
  Q 23.35 36.09 10.49 36.08
  Q 9.76 36.08 9.19 35.61
  L 6.87 33.71
  Q 6.35 33.29 6.06 33.89
  Q 5.96 34.08 5.87 34.27
  Q 5.47 35.13 5.30 34.20
  Q 5.20 33.70 5.48 33.21
  Q 5.77 32.70 5.19 32.77
  Z
  M 41.11 30.85
  A 3.71 3.71 0.0 0 0 37.40 27.14
  L 11.02 27.14
  A 3.71 3.71 0.0 0 0 7.31 30.85
  L 7.31 31.05
  A 3.71 3.71 0.0 0 0 11.02 34.76
  L 37.40 34.76
  A 3.71 3.71 0.0 0 0 41.11 31.05
  L 41.11 30.85
  Z
  M 5.32 30.78
  Q 5.64 30.54 5.31 30.32
  Q 4.87 30.03 4.36 30.10
  Q 3.95 30.16 3.85 30.56
  Q 3.76 30.94 4.14 31.03
  Q 4.78 31.17 5.32 30.78
  Z"
/>
</svg>
